<?xml version="1.0" encoding="UTF-8"?>
<svg xmlns="http://www.w3.org/2000/svg" xmlns:xlink="http://www.w3.org/1999/xlink" viewBox="0 0 150 150" width="150px" height="150px">
<g id="surface112973147">
<path style=" stroke:none;fill-rule:nonzero;fill:rgb(75.294119%,75.294119%,75.294119%);fill-opacity:1;" d="M 130.007812 12 L 20.003906 12 C 15.585938 12 12 15.585938 12 20.003906 L 12 129.996094 C 12 134.414062 15.585938 138 20.003906 138 L 129.996094 138 C 134.414062 138 138 134.414062 138 130.007812 L 138 20.003906 C 138 15.585938 134.414062 12 130.007812 12 Z M 81 108.550781 C 81 120.539062 73.96875 126 63.703125 126 C 54.421875 126 47.730469 119.777344 45 114 L 54.433594 108.292969 C 56.25 111.515625 59.015625 114 63 114 C 66.808594 114 69 112.511719 69 106.722656 L 69 69 L 81 69 Z M 107.027344 126 C 96.398438 126 90.363281 120.644531 87 114 L 96 108 C 98.449219 112.007812 101.121094 115.839844 106.769531 115.839844 C 111.515625 115.839844 114 113.472656 114 110.191406 C 114 106.277344 111.421875 104.882812 106.207031 102.597656 L 103.347656 101.367188 C 95.085938 97.851562 89.589844 93.445312 89.589844 84.117188 C 89.589844 75.539062 96.140625 69 106.359375 69 C 113.636719 69 118.863281 71.53125 122.636719 78.164062 L 113.730469 83.894531 C 111.761719 80.367188 109.652344 78.984375 106.359375 78.984375 C 103.007812 78.984375 100.886719 81.117188 100.886719 83.894531 C 100.886719 87.328125 103.007812 88.710938 107.917969 90.84375 L 110.777344 92.074219 C 120.515625 96.234375 126 100.488281 126 110.050781 C 126 120.351562 117.902344 126 107.027344 126 Z M 107.027344 126 "/>
</g>
</svg>
