<?xml version="1.0" encoding="UTF-8"?>
<svg xmlns="http://www.w3.org/2000/svg" xmlns:xlink="http://www.w3.org/1999/xlink" viewBox="0 0 150 150" width="150px" height="150px">
<g id="surface112907943">
<path style=" stroke:none;fill-rule:nonzero;fill:rgb(77.64706%,77.64706%,78.823531%);fill-opacity:1;" d="M 75 12 C 76.699219 12 78.292969 12.65625 79.488281 13.863281 L 136.136719 70.511719 C 138.621094 72.984375 138.621094 77.015625 136.136719 79.488281 L 79.488281 136.136719 C 78.292969 137.34375 76.699219 138 75 138 C 73.300781 138 71.707031 137.34375 70.511719 136.136719 L 13.863281 79.488281 C 11.378906 77.015625 11.378906 72.984375 13.863281 70.511719 L 50.824219 33.550781 L 57.644531 40.371094 C 56.003906 46.464844 57.65625 53.109375 62.273438 57.726562 C 63.375 58.828125 64.628906 59.777344 66 60.5625 L 66 89.449219 C 60.539062 92.601562 57 98.472656 57 105 C 57 114.925781 65.074219 123 75 123 C 84.925781 123 93 114.925781 93 105 C 93 98.472656 89.460938 92.601562 84 89.449219 L 84 66.726562 L 87.644531 70.371094 C 86.003906 76.464844 87.65625 83.109375 92.273438 87.726562 C 95.671875 91.125 100.195312 93 105 93 C 109.804688 93 114.328125 91.125 117.726562 87.726562 C 124.746094 80.707031 124.746094 69.292969 117.726562 62.273438 C 114.339844 58.886719 109.851562 57.023438 105.058594 57.023438 C 103.476562 57.023438 101.894531 57.234375 100.371094 57.644531 L 92.355469 49.628906 C 93.996094 43.535156 92.34375 36.890625 87.726562 32.273438 C 84.339844 28.886719 79.851562 27.023438 75.058594 27.023438 C 73.476562 27.023438 71.894531 27.234375 70.371094 27.644531 L 63.550781 20.824219 L 70.511719 13.863281 C 71.707031 12.65625 73.300781 12 75 12 M 75 6 C 71.835938 6 68.671875 7.207031 66.269531 9.621094 L 55.066406 20.824219 L 68.929688 34.6875 C 70.816406 33.585938 72.9375 33.023438 75.058594 33.023438 C 78.105469 33.023438 81.152344 34.183594 83.484375 36.515625 C 87.433594 40.464844 88.007812 46.464844 85.300781 51.058594 L 98.929688 64.6875 C 100.816406 63.585938 102.9375 63.023438 105.058594 63.023438 C 108.105469 63.023438 111.152344 64.183594 113.484375 66.515625 C 118.171875 71.203125 118.171875 78.796875 113.484375 83.484375 C 111.140625 85.828125 108.070312 87 105 87 C 101.929688 87 98.859375 85.828125 96.515625 83.484375 C 92.566406 79.535156 91.992188 73.535156 94.699219 68.929688 L 81.070312 55.300781 C 80.097656 55.875 79.066406 56.296875 78 56.566406 L 78 93.421875 C 83.167969 94.757812 87 99.410156 87 105 C 87 111.632812 81.632812 117 75 117 C 68.378906 117 63 111.632812 63 105 C 63 99.410156 66.832031 94.757812 72 93.421875 L 72 56.566406 C 69.996094 56.050781 68.085938 55.054688 66.515625 53.484375 C 62.566406 49.535156 61.992188 43.535156 64.699219 38.941406 L 50.824219 25.066406 L 9.621094 66.269531 C 4.792969 71.085938 4.792969 78.914062 9.621094 83.730469 L 66.269531 140.378906 C 68.671875 142.792969 71.835938 144 75 144 C 78.164062 144 81.328125 142.792969 83.730469 140.378906 L 140.378906 83.730469 C 145.207031 78.914062 145.207031 71.085938 140.378906 66.269531 L 83.730469 9.621094 C 81.328125 7.207031 78.164062 6 75 6 Z M 75 6 "/>
</g>
</svg>
