<?xml version="1.0" encoding="UTF-8"?>
<svg xmlns="http://www.w3.org/2000/svg" xmlns:xlink="http://www.w3.org/1999/xlink" viewBox="0 0 150 150" width="150px" height="150px">
<g id="surface112848261">
<path style=" stroke:none;fill-rule:nonzero;fill:rgb(77.64706%,77.64706%,78.823531%);fill-opacity:1;" d="M 84.5625 0 C 92.8125 19.089844 54.984375 30.878906 51.46875 46.78125 C 48.246094 61.394531 73.945312 78.375 73.96875 78.375 C 70.066406 72.328125 67.195312 67.347656 63.28125 57.9375 C 56.660156 42.023438 103.605469 27.621094 84.5625 0 Z M 109.6875 26.4375 C 109.6875 26.4375 76.5 28.570312 74.8125 49.78125 C 74.0625 59.226562 83.542969 64.195312 83.8125 71.0625 C 84.035156 76.675781 78.1875 81.375 78.1875 81.375 C 78.1875 81.375 88.828125 79.347656 92.15625 70.78125 C 95.847656 61.277344 84.960938 54.855469 86.0625 47.25 C 87.117188 39.972656 109.6875 26.4375 109.6875 26.4375 Z M 57.5625 75.46875 C 57.5625 75.46875 27.1875 75.035156 27.1875 83.625 C 27.1875 92.601562 66.949219 93.269531 95.34375 87.75 C 95.34375 87.75 102.890625 82.558594 104.90625 80.625 C 86.296875 84.421875 43.875 84.84375 43.875 81.5625 C 43.875 78.539062 57.5625 75.46875 57.5625 75.46875 Z M 115.96875 75.46875 C 112.992188 75.703125 109.78125 76.851562 106.875 78.9375 C 113.71875 77.460938 119.53125 81.703125 119.53125 86.53125 C 119.53125 97.40625 103.78125 107.625 103.78125 107.625 C 103.78125 107.625 128.15625 104.859375 128.15625 87 C 128.15625 78.890625 122.519531 74.953125 115.96875 75.46875 Z M 50.25 92.15625 C 45.585938 92.15625 38.625 95.8125 38.625 99.28125 C 38.625 106.253906 73.6875 111.621094 99.65625 101.4375 L 90.65625 95.90625 C 73.054688 101.542969 40.640625 99.703125 50.25 92.15625 Z M 54.5625 107.8125 C 48.175781 107.8125 43.96875 111.667969 43.96875 114.5625 C 43.96875 123.515625 82.113281 124.417969 97.21875 115.3125 L 87.65625 109.21875 C 76.371094 113.988281 48.046875 114.714844 54.5625 107.8125 Z M 33.28125 115.875 C 22.875 115.664062 16.125 120.339844 16.125 124.21875 C 16.125 144.84375 122.625 143.894531 122.625 122.8125 C 122.625 119.308594 118.582031 117.609375 117.09375 116.8125 C 125.800781 136.96875 29.90625 135.363281 29.90625 123.46875 C 29.90625 120.761719 36.960938 118.171875 43.5 119.4375 L 37.96875 116.25 C 36.339844 116.003906 34.769531 115.910156 33.28125 115.875 Z M 133.875 129.75 C 117.679688 145.101562 76.640625 150.667969 35.34375 141.1875 C 76.628906 158.085938 133.675781 148.605469 133.875 129.75 Z M 133.875 129.75 "/>
</g>
</svg>
