<?xml version="1.0" encoding="UTF-8"?>
<svg xmlns="http://www.w3.org/2000/svg" xmlns:xlink="http://www.w3.org/1999/xlink" viewBox="0 0 150 150" width="150px" height="150px">
<g id="surface112893673">
<path style=" stroke:none;fill-rule:nonzero;fill:rgb(77.64706%,77.64706%,78.823531%);fill-opacity:1;" d="M 75 6 C 36.933594 6 6 36.933594 6 75 C 6 113.066406 36.933594 144 75 144 C 113.066406 144 144 113.066406 144 75 C 144 36.933594 113.066406 6 75 6 Z M 75 12 C 109.820312 12 138 40.179688 138 75 C 138 109.820312 109.820312 138 75 138 C 40.179688 138 12 109.820312 12 75 C 12 40.179688 40.179688 12 75 12 Z M 75 18 C 43.539062 18 18 43.539062 18 75 C 18 106.460938 43.539062 132 75 132 C 106.460938 132 132 106.460938 132 75 C 132 43.539062 106.460938 18 75 18 Z M 75 24 C 86.917969 24 97.835938 28.097656 106.503906 34.914062 C 104.988281 36.777344 104.097656 39.160156 104.097656 41.699219 C 104.097656 46.5 106.796875 50.699219 109.796875 55.5 C 112.199219 59.398438 114.597656 64.5 114.597656 71.699219 C 114.597656 76.800781 113.097656 83.101562 110.097656 90.902344 L 104.097656 110.699219 L 82.800781 47.097656 C 86.398438 46.796875 89.699219 46.5 89.699219 46.5 C 92.699219 46.199219 92.402344 41.699219 89.402344 41.699219 L 89.097656 41.699219 C 89.097656 41.699219 79.5 42.597656 73.199219 42.597656 C 67.5 42.597656 57.597656 41.699219 57.597656 41.699219 L 57.300781 41.699219 C 54.300781 41.699219 54 46.5 57 46.5 C 57 46.5 60 46.796875 63.300781 47.097656 L 72.597656 72.300781 L 59.699219 111 L 38.097656 46.800781 C 41.699219 46.5 45 46.199219 45 46.199219 C 48 45.902344 47.699219 41.402344 44.699219 41.402344 L 44.402344 41.402344 C 44.402344 41.402344 40.46875 41.726562 36.132812 41.988281 C 45.480469 30.988281 59.394531 24 75 24 Z M 111.261719 39.125 C 115.347656 43.25 118.691406 48.085938 121.179688 53.414062 C 121.113281 56.808594 120.550781 60.203125 119.699219 63.597656 C 118.5 59.398438 117 55.800781 115.199219 52.800781 L 114.597656 51.597656 C 112.199219 47.699219 110.402344 44.699219 110.402344 42 C 110.402344 40.972656 110.699219 39.957031 111.261719 39.125 Z M 70.800781 48.300781 L 73.800781 48.300781 C 75 48.597656 75.902344 48.597656 77.402344 48.597656 L 77.699219 49.199219 L 99 112.796875 L 101.09375 118.785156 C 99.949219 119.46875 98.777344 120.105469 97.578125 120.695312 L 81.597656 78 L 79.5 72.300781 L 78.902344 70.199219 Z M 31.402344 48.597656 L 32.699219 48.597656 L 33 49.199219 L 54.597656 113.402344 L 56.402344 118.796875 L 55.371094 122.09375 C 54.546875 121.75 53.757812 121.339844 52.957031 120.953125 L 28.550781 53.980469 C 29.394531 52.121094 30.351562 50.332031 31.398438 48.597656 Z M 124.757812 63.882812 C 125.550781 67.464844 126 71.175781 126 75 C 126 90.777344 118.871094 104.839844 107.660156 114.1875 L 121.796875 73.199219 C 123.109375 69.863281 124.058594 66.785156 124.757812 63.882812 Z M 25.101562 64.417969 L 43.742188 115.273438 C 31.738281 105.949219 24 91.414062 24 75 C 24 71.367188 24.382812 67.832031 25.101562 64.417969 Z M 75 79.800781 L 91.027344 123.40625 C 85.984375 125.066406 80.605469 126 75 126 C 69.777344 126 64.742188 125.207031 60 123.753906 Z M 75 79.800781 "/>
</g>
</svg>
