<?xml version="1.0" encoding="UTF-8"?>
<svg xmlns="http://www.w3.org/2000/svg" xmlns:xlink="http://www.w3.org/1999/xlink" viewBox="0 0 100 100" width="100px" height="100px">
<g id="surface132936351">
<path style=" stroke:none;fill-rule:nonzero;fill:rgb(0%,0%,0%);fill-opacity:1;" d="M 50 9.375 C 27.5625 9.375 9.375 27.5625 9.375 50 C 9.375 72.4375 27.5625 90.625 50 90.625 C 72.4375 90.625 90.625 72.4375 90.625 50 C 90.625 27.5625 72.4375 9.375 50 9.375 Z M 50 14.0625 C 69.847656 14.0625 85.9375 30.152344 85.9375 50 C 85.9375 69.847656 69.847656 85.9375 50 85.9375 C 30.152344 85.9375 14.0625 69.847656 14.0625 50 C 14.0625 30.152344 30.152344 14.0625 50 14.0625 Z M 50 18.75 C 39.367188 18.75 29.96875 24.097656 24.324219 32.234375 C 24.777344 32.234375 25.210938 32.230469 25.601562 32.230469 C 28.914062 32.230469 34.054688 31.835938 34.054688 31.835938 C 35.757812 31.738281 35.953125 34.277344 34.246094 34.488281 C 34.246094 34.488281 32.507812 34.78125 30.597656 34.878906 L 42.125 69.835938 L 49.039062 48.625 L 44.140625 34.878906 C 42.4375 34.78125 40.777344 34.488281 40.777344 34.488281 C 39.074219 34.390625 39.265625 31.738281 40.96875 31.835938 C 40.96875 31.835938 46.214844 32.230469 49.324219 32.230469 C 52.640625 32.230469 57.777344 31.835938 57.777344 31.835938 C 59.484375 31.738281 59.675781 34.277344 57.972656 34.488281 C 57.972656 34.488281 56.21875 34.78125 54.320312 34.878906 L 65.753906 69.636719 L 68.925781 58.835938 C 70.519531 54.640625 71.324219 51.105469 71.324219 48.332031 C 71.324219 44.328125 69.945312 41.640625 68.730469 39.492188 C 67.136719 36.828125 65.660156 34.496094 65.660156 31.832031 C 65.660156 29.101562 67.507812 26.605469 70.222656 26.21875 C 64.769531 21.570312 57.710938 18.75 50 18.75 Z M 77.902344 36.007812 C 77.9375 36.59375 77.949219 37.195312 77.949219 37.824219 C 77.949219 41.101562 77.351562 44.796875 75.550781 49.410156 L 66.433594 76.527344 C 75.308594 71.011719 81.25 61.199219 81.25 50 C 81.25 44.964844 80.027344 40.222656 77.902344 36.007812 Z M 21.34375 37.566406 C 19.683594 41.382812 18.75 45.582031 18.75 50 C 18.75 62.078125 25.648438 72.554688 35.699219 77.753906 Z M 50.578125 52.847656 L 41.40625 80.019531 C 44.140625 80.804688 47.015625 81.25 50 81.25 C 53.539062 81.25 56.925781 80.632812 60.097656 79.542969 Z M 50.578125 52.847656 "/>
</g>
</svg>
